<svg xmlns="http://www.w3.org/2000/svg" xmlns:xlink="http://www.w3.org/1999/xlink" id="Capa_1" x="0" y="0" version="1.1" viewBox="0 0 512.071 512.071" xml:space="preserve" style="enable-background:new 0 0 512.071 512.071"><g><g><path style="fill:#d84315" d="M254.81,144.172c-4.274-0.018-8.546,0.181-12.8,0.597c70.137,6.606,123.734,65.488,123.734,135.936 s-53.597,129.33-123.734,135.936c4.254,0.416,8.526,0.615,12.8,0.597c75.405,0,136.533-61.128,136.533-136.533 S330.216,144.172,254.81,144.172z" transform="translate(1 1)"/><path style="fill:#ff5722" d="M242.01,144.769c-70.137,6.606-123.734,65.488-123.734,135.936s53.597,129.33,123.734,135.936 c70.137-6.606,123.734-65.488,123.734-135.936S312.148,151.375,242.01,144.769z M254.81,383.105 c-4.281,0.019-8.559-0.266-12.8-0.853c-51.194-6.424-89.601-49.951-89.601-101.547s38.407-95.123,89.601-101.547 c4.241-0.587,8.519-0.872,12.8-0.853c56.554,0,102.4,45.846,102.4,102.4S311.364,383.105,254.81,383.105z" transform="translate(1 1)"/><g><path style="fill:#c52828" d="M110.768,465.452c-10.797,1.329-21.735,0.983-32.427-1.024 c-14.56-9.652-27.397-21.681-37.973-35.584l0.341-0.341C58.614,449.154,83.613,462.339,110.768,465.452z" transform="translate(1 1)"/><path style="fill:#c52828" d="M331.354,451.542c12.891,7.47,27.183,12.205,41.984,13.909 c-44.082,5.243-86.953-16.716-108.459-55.552c-1.195-2.133-2.304-4.352-3.328-6.485c-3.79-8.084-6.597-16.592-8.363-25.344 c-5.261-26.015-0.83-53.056,12.459-76.032v-0.085c0-0.023,0.008-0.045,0.024-0.061s0.038-0.025,0.061-0.024 c13.476-23.354,35.119-40.893,60.757-49.237c8.081-2.629,16.445-4.29,24.917-4.949c2.901-0.256,5.717-0.427,8.619-0.427 c4.562,0.001,9.12,0.257,13.653,0.768c-7.341,0.754-14.58,2.299-21.589,4.608c-25.639,8.345-47.282,25.884-60.757,49.237 c-0.023,0-0.045,0.008-0.061,0.024s-0.025,0.038-0.024,0.061v0.085c-13.289,22.976-17.72,50.017-12.459,76.032 c1.765,8.752,4.573,17.26,8.363,25.344c1.024,2.133,2.133,4.352,3.328,6.485C300.054,427.247,314.188,441.647,331.354,451.542z" transform="translate(1 1)"/><path style="fill:#c52828" d="M487.002,399.745l-0.256-0.085c16.428-38.39,9.575-82.783-17.664-114.432 c-10.488-32.312-32.554-59.605-61.952-76.629c-9.535-5.552-19.745-9.854-30.379-12.8c2.746-10.705,4.123-21.716,4.096-32.768 c-0.005-30.338-10.09-59.815-28.672-83.797c-16.001-31.149-45.949-52.753-80.555-58.112l0.085-0.341 c75.861,7.851,134.741,68.523,134.741,142.251c0.027,11.052-1.35,22.063-4.096,32.768c10.633,2.946,20.843,7.248,30.379,12.8 C497.669,246.06,520.368,329.43,487.002,399.745z" transform="translate(1 1)"/><path style="fill:#c52828" d="M469.338,428.673c-30.875,41.518-80.949,64.217-132.523,60.075 c24.597-2.236,48.243-10.597,68.779-24.32c24.639-4.375,47.025-17.09,63.403-36.011L469.338,428.673z" transform="translate(1 1)"/></g><path style="fill:#f44335" d="M469.082,285.228c-20.904-24.284-51.415-38.167-83.456-37.973c-2.901,0-5.717,0.171-8.619,0.427 c-1.109,0.085-2.219,0.171-3.328,0.341c-4.533-0.511-9.091-0.767-13.653-0.768c-2.901,0-5.717,0.171-8.619,0.427 c-8.472,0.659-16.836,2.32-24.917,4.949c-25.639,8.345-47.282,25.884-60.757,49.237c-0.023,0-0.045,0.008-0.061,0.024 s-0.025,0.038-0.024,0.061v0.085c-13.289,22.976-17.72,50.017-12.459,76.032c1.765,8.752,4.573,17.26,8.363,25.344 c1.024,2.133,2.133,4.352,3.328,6.485c21.505,38.837,64.376,60.795,108.459,55.552c10.742,1.285,21.617,0.939,32.256-1.024 c-20.536,13.723-44.181,22.084-68.779,24.32c-19.636-1.714-38.657-7.715-55.723-17.579c-9.556-5.505-18.385-12.185-26.283-19.883 c-4.027,3.94-8.302,7.616-12.8,11.008c-27.182,20.297-60.955,29.729-94.72,26.453c-24.654-2.221-48.358-10.582-68.949-24.32 c10.692,2.007,21.629,2.353,32.427,1.024c23.413,2.828,47.111-2.056,67.499-13.909c17.171-9.917,31.328-24.31,40.96-41.643 c1.109-2.133,2.219-4.352,3.243-6.485c3.79-8.084,6.597-16.592,8.363-25.344c5.304-26.014,0.87-53.071-12.459-76.032v-0.085 c0-0.023-0.008-0.045-0.024-0.061c-0.016-0.016-0.038-0.025-0.061-0.024c-13.476-23.354-35.119-40.893-60.757-49.237 c-8.081-2.629-16.445-4.29-24.917-4.949c-2.901-0.256-5.632-0.427-8.619-0.427c-4.59,0.001-9.177,0.257-13.739,0.768 c-4.915,0.613-9.788,1.525-14.592,2.731c-30.793,8.138-56.524,29.266-70.498,57.887c-13.975,28.621-14.811,61.904-2.291,91.19 l-0.171,0.085c-17.273-35.8-20.055-76.887-7.765-114.688l0.085-0.085c10.522-32.272,32.581-59.528,61.952-76.544 c9.498-5.566,19.682-9.869,30.293-12.8c-2.746-10.705-4.123-21.716-4.096-32.768c0.016-30.244,10.071-59.628,28.587-83.541 c25.753-33.44,64.223-54.7,106.24-58.709v0.341c-53.351,8.271-92.7,54.214-92.672,108.203 c-0.078,19.227,5.021,38.121,14.763,54.699c1.442,2.623,3.038,5.159,4.779,7.595c4.75,6.921,10.308,13.252,16.555,18.859 c16.79,15.336,37.993,24.982,60.587,27.563c4.247,0.516,8.522,0.772,12.8,0.768c27.145,0.069,53.33-10.039,73.387-28.331 c6.247-5.607,11.804-11.938,16.555-18.859c1.741-2.435,3.337-4.971,4.779-7.595c9.742-16.577,14.841-35.471,14.763-54.699 c0.03-17.426-4.126-34.605-12.117-50.091c18.582,23.982,28.667,53.459,28.672,83.797c0.027,11.052-1.35,22.063-4.096,32.768 c10.633,2.946,20.843,7.248,30.379,12.8C436.529,225.622,458.594,252.915,469.082,285.228z" transform="translate(1 1)"/></g><path d="M437.96,202.18c-7.804-4.52-16.024-8.282-24.546-11.233c1.697-8.88,2.546-17.901,2.533-26.942 c0-77.458-61.183-142.267-142.317-150.733c-4.337-0.377-8.286,2.505-9.25,6.75c-0.583,2.328-0.158,4.793,1.171,6.791 c1.328,1.998,3.437,3.345,5.809,3.709c49.041,7.906,85.171,50.119,85.413,99.792c-0.026,14.115-3.036,28.065-8.832,40.935 c-53.23-44.847-131.021-44.847-184.251,0c-5.795-12.87-8.804-26.821-8.829-40.935c0.24-49.672,36.369-91.885,85.408-99.792 c4.209-0.796,7.251-4.483,7.233-8.767c0-2.415-1.024-4.716-2.817-6.333c-1.802-1.607-4.193-2.389-6.596-2.158 c-81.183,8.392-142.408,73.2-142.408,150.741c-0.012,9.041,0.836,18.062,2.533,26.942c-8.522,2.952-16.741,6.714-24.546,11.233 C5.877,241.305-19.456,330.213,15.994,404.597c2.055,4.189,7.068,5.985,11.316,4.056c4.248-1.929,6.194-6.885,4.393-11.189 c-13.067-29.524-11.074-63.541,5.352-91.337c16.426-27.796,45.263-45.949,77.428-48.743c-1.288,7.775-1.942,15.641-1.955,23.521 c0.073,60.284,37.81,114.098,94.463,134.705c-17.741,25.556-46.311,41.462-77.379,43.081c-31.068,1.619-61.136-11.23-81.439-34.803 c-1.639-1.76-3.933-2.764-6.338-2.775c-2.442,0.019-4.78,0.987-6.521,2.7c-2.987,3.027-3.292,7.791-0.717,11.175 c48.158,63.158,133.8,82.308,199.208,44.575c7.82-4.507,15.19-9.753,22.008-15.667c6.822,5.913,14.194,11.159,22.017,15.667 c22.097,12.704,47.153,19.355,72.642,19.283c49.899-0.414,96.743-24.1,126.654-64.042c2.729-3.927,1.871-9.309-1.946-12.192 c-3.584-2.76-8.7-2.233-11.646,1.2c-20.293,23.607-50.372,36.487-81.461,34.882s-59.682-17.514-77.435-43.085 c56.655-20.605,94.394-74.42,94.467-134.705c-0.013-7.868-0.666-15.722-1.952-23.484c32.001,3.044,60.616,21.211,76.986,48.876 c16.37,27.666,18.519,61.492,5.782,91.007c-0.945,2.2-0.921,4.697,0.064,6.879c0.986,2.182,2.843,3.85,5.119,4.596l0.254,0.083 c4.084,1.359,8.539-0.553,10.367-4.45C531.577,328.822,506.744,241.88,437.96,202.18z M339.505,186.589 c-0.257,0.384-0.489,0.804-0.749,1.183c-2.943,4.168-6.198,8.107-9.736,11.783c-41.537-37.668-104.878-37.667-146.413,0.002 c-3.531-3.669-6.78-7.601-9.717-11.76c-0.267-0.389-0.501-0.816-0.764-1.208C219.808,144.044,291.823,144.044,339.505,186.589z M316.367,211.035c-35.86,26.982-85.246,26.982-121.105-0.001C229.976,180.817,281.654,180.817,316.367,211.035z M129.594,280.905 c0.066-7.989,0.886-15.954,2.449-23.79c0.298,0.024,0.588,0.014,0.889,0.04c5.185,0.463,10.325,1.332,15.373,2.599 c-1.39,6.964-2.09,14.049-2.09,21.151c-0.107,47.332,30.27,89.352,75.248,104.092c-1.455,5.321-3.339,10.516-5.634,15.533 C164.378,383.31,129.668,335.161,129.594,280.905z M211.79,307.013c0.054,0.1,0.108,0.208,0.171,0.308 c10.644,18.379,15.168,39.668,12.917,60.788c-36.976-13.027-61.679-48.001-61.596-87.204c0.044-5.295,0.55-10.576,1.511-15.783 C184.532,273.705,201.003,288.386,211.79,307.013L211.79,307.013z M299.673,307.322c0.071-0.117,0.137-0.242,0.2-0.367 c10.786-18.602,27.245-33.262,46.967-41.832c0.959,5.207,1.464,10.488,1.508,15.782c0.083,39.206-24.624,74.182-61.603,87.207 C284.499,346.99,289.026,325.702,299.673,307.322L299.673,307.322z M295.795,400.531c-2.293-5.017-4.175-10.212-5.628-15.534 c52.519-17.276,83.906-71.008,73.159-125.241c5.07-1.273,10.231-2.145,15.438-2.609c0.273-0.024,0.549-0.017,0.825-0.038 C392.089,319.251,356.068,380.905,295.795,400.531z M446.144,255.497c-17.935-10.364-38.286-15.814-59-15.8 c-3.292,0.042-6.583,0.158-9.796,0.442c-9.026,0.734-17.938,2.508-26.558,5.284l-0.084,0.007l-0.056,0.03l-0.206,0.054 c-27.631,9.01-50.95,27.928-65.462,53.108h0.005c-0.071,0.125-0.142,0.242-0.204,0.367c-14.271,24.707-19.016,53.779-13.342,81.742 c0.021,0.107,0.063,0.213,0.084,0.321l0.004,0.087l0.049,0.113c1.858,9.222,4.824,18.186,8.834,26.696 c1.104,2.392,2.296,4.783,3.563,7.05c0.111,0.202,0.261,0.378,0.374,0.579l0.118,0.183c21.495,38.253,62.503,61.353,106.358,59.913 c-34.817,11.092-72.683,7.144-104.463-10.892c-8.938-5.142-17.195-11.385-24.579-18.583c-3.318-3.245-8.62-3.245-11.938,0 c-7.378,7.201-15.633,13.444-24.571,18.583c-31.739,18.036-69.571,21.991-104.354,10.908c43.819,1.391,84.773-21.71,106.247-59.932 l0.115-0.177c0.107-0.191,0.249-0.358,0.355-0.55c1.292-2.308,2.488-4.7,3.563-7.033c4.025-8.525,6.999-17.509,8.858-26.751 l0.046-0.107l0.003-0.083l0.063-0.242c5.668-27.817,1.023-56.746-13.067-81.392c-0.208-0.455-0.456-0.89-0.742-1.3 c-14.543-24.942-37.746-43.668-65.196-52.617l-0.18-0.047l-0.054-0.028l-0.08-0.007c-8.602-2.772-17.495-4.542-26.503-5.277 c-3.108-0.275-6.121-0.45-9.246-0.45h-0.009c-10.335-0.002-20.631,1.28-30.65,3.817c-31.413,8.355-58.023,29.23-73.617,57.75 c7.892-35.391,30.119-65.919,61.375-84.3c8.899-5.174,18.418-9.198,28.329-11.975c4.481-1.24,7.145-5.838,5.992-10.342 c-2.533-10.016-3.802-20.31-3.775-30.642c0.151-37.08,16.041-72.352,43.713-97.034c-23.852,37.031-24.922,84.31-2.771,122.383 c1.625,2.8,3.342,5.508,5.167,8.15c5.1,7.385,11.043,14.151,17.708,20.161l0.033,0.047l0.035,0.022l0.086,0.086 c44.859,40.67,113.249,40.691,158.133,0.05l0.119-0.121l0.06-0.037l0.055-0.078c6.663-6.01,12.604-12.774,17.704-20.156 c1.808-2.617,3.525-5.325,5.137-8.1c22.152-38.045,21.107-85.296-2.704-122.325c27.631,24.672,43.498,59.908,43.659,96.95 c0.027,10.331-1.242,20.626-3.775,30.642c-1.153,4.504,1.511,9.102,5.992,10.342c9.912,2.777,19.431,6.801,28.329,11.975 c31.244,18.391,53.456,48.921,61.338,84.308C480.395,282.192,464.952,266.35,446.144,255.497L446.144,255.497z"/></g></svg>